# xmcd
#
# Track frame offsets: 
#        150
#        12280
#        25475
#        44280
#        55532
#        67190
#        80262
#        93285
#        103825
#        117095
#        129322
#        141020
#        154417
#        166445
#        178310
#        188590
#        203660
#        215352
#        230177
#        248027
#        258580
#        270332
#        282880
#        294677
#        306182
#        317372
#
# Disc length: 4383 seconds
#
# Revision: 3
# Processed by: cddbd v1.5.2PL0 Copyright (c) Steve Scherf et al.
# Submitted via: ExactAudioCopy v1.3
#
DISCID=75111d1a
DTITLE=Various Artist - Everylasting in Original Vol 1
DYEAR=1992
DGENRE=
TTITLE0=The Platters - SMOKE GETS IN YOUR EYES
TTITLE1=Persy Sledge - WHEN A MAN LOVES A WOMAN
TTITLE2=Lobo - I'D LOVE YOU TO WANT ME
TTITLE3=The Cascada - RHYTHM OF THE RAIN
TTITLE4=Ray Peterson - CORINNA CORINNA
TTITLE5=Ray Peterson - TELL LAURA I LOVE HER
TTITLE6=B.J. Thomas - RAINDROPS KEEP FALLING ON MY HEAD
TTITLE7=The Everly Brothers - DEVOTED TO YOU
TTITLE8=Patti Page - TENNESSE WALTZ
TTITLE9=The Drifters - UNDER THE BOARDWALK
TTITLE10=The Platters - THE GREAT PRETENDER
TTITLE11=Ben E. King - STAND BY ME
TTITLE12=Pat Boone - APRIL LOVE
TTITLE13=Skeeter Davis - THE END OF THE WORLD
TTITLE14=Pat Boone - LOVE LETTER IN THE SAND
TTITLE15=Patti Page - I WENT TO YOUR WEDDING
TTITLE16=The Platters - ONLY YOU
TTITLE17=Kingston Trio - TOM DOOLEY
TTITLE18=Marmalade - REFLECTION OF MY LIFE
TTITLE19=Frankie Laine - SIXTEEN TONS
TTITLE20=The Driffers - SAVE THE LAST DANCE FOR ME
TTITLE21=Gallery - NICE TO BE WITH YOU
TTITLE22=Pat Boone - MODDY RIVER
TTITLE23=Kenny Rogers - POEM FOR MY LITTLE LADY
TTITLE24=Frankie Laine - ROSE ROSE I LOVE YOU
TTITLE25=Jerry Bulter - MOON RIVER
EXTD=YEAR: 1992
EXTT0=
EXTT1=
EXTT2=
EXTT3=
EXTT4=
EXTT5=
EXTT6=
EXTT7=
EXTT8=
EXTT9=
EXTT10=
EXTT11=
EXTT12=
EXTT13=
EXTT14=
EXTT15=
EXTT16=
EXTT17=
EXTT18=
EXTT19=
EXTT20=
EXTT21=
EXTT22=
EXTT23=
EXTT24=
EXTT25=
PLAYORDER=
